<svg width="300" height="300" viewBox="0 0 300 300" fill="none" xmlns="http://www.w3.org/2000/svg">
<rect width="300" height="300" fill="#F5F5F5"/>
<rect x="-6.10352e-05" y="3.05176e-05" width="300" height="300" fill="white"/>
<path d="M29.16 209.24H42.12C45.36 209.24 46.98 207.62 46.98 204.38V97.46C46.98 95.78 46.56 94.58 45.72 93.86C45 93.02 43.8 92.6 42.12 92.6H29.16V86.84H152.28V92.6H139.32C137.64 92.6 136.38 93.02 135.54 93.86C134.82 94.58 134.46 95.78 134.46 97.46V204.38C134.46 207.62 136.08 209.24 139.32 209.24H152.28V215H100.08V209.24H113.04C116.28 209.24 117.9 207.62 117.9 204.38V97.46C117.9 95.78 117.48 94.58 116.64 93.86C115.92 93.02 114.72 92.6 113.04 92.6H68.4C66.72 92.6 65.46 93.02 64.62 93.86C63.9 94.58 63.54 95.78 63.54 97.46V204.38C63.54 207.62 65.16 209.24 68.4 209.24H81.36V215H29.16V209.24ZM171.015 209.24H183.975C187.215 209.24 188.835 207.62 188.835 204.38V97.46C188.835 95.78 188.415 94.58 187.575 93.86C186.855 93.02 185.655 92.6 183.975 92.6H171.015V86.84H231.135C239.535 86.84 246.975 88.28 253.455 91.16C260.055 93.92 265.155 97.88 268.755 103.04C272.475 108.08 274.335 113.84 274.335 120.32C274.335 126.92 272.475 132.8 268.755 137.96C265.155 143.12 260.055 147.2 253.455 150.2C246.975 153.08 239.535 154.52 231.135 154.52H205.395V204.38C205.395 206.06 205.755 207.32 206.475 208.16C207.195 208.88 208.455 209.24 210.255 209.24H226.095V215H171.015V209.24ZM233.475 148.76C239.955 148.76 245.175 146 249.135 140.48C253.215 134.84 255.255 128.12 255.255 120.32C255.255 112.52 253.275 105.98 249.315 100.7C245.355 95.3 240.075 92.6 233.475 92.6H210.255C208.575 92.6 207.315 93.02 206.475 93.86C205.755 94.58 205.395 95.78 205.395 97.46V148.76H233.475Z" fill="#222222"/>
<rect x="44" y="139" width="233" height="43" fill="white"/>
<path d="M23.36 169V155H35.14V169H33.68V155.88L34.06 156.28H24.44L24.82 155.88V169H23.36ZM39.8639 169V155H45.1039C46.2906 155 47.3106 155.193 48.1639 155.58C49.0172 155.953 49.6706 156.5 50.1239 157.22C50.5906 157.927 50.8239 158.787 50.8239 159.8C50.8239 160.787 50.5906 161.64 50.1239 162.36C49.6706 163.067 49.0172 163.613 48.1639 164C47.3106 164.387 46.2906 164.58 45.1039 164.58H40.6839L41.3439 163.88V169H39.8639ZM41.3439 164L40.6839 163.28H45.0639C46.4639 163.28 47.5239 162.98 48.2439 162.38C48.9772 161.767 49.3439 160.907 49.3439 159.8C49.3439 158.68 48.9772 157.813 48.2439 157.2C47.5239 156.587 46.4639 156.28 45.0639 156.28H40.6839L41.3439 155.58V164ZM53.8483 169V155H55.3083V166.6L64.2683 155H65.6083V169H64.1483V157.42L55.1883 169H53.8483ZM70.3327 169V155H71.7927V167.72H80.2527V155H81.7127V169H70.3327ZM82.5527 172.28V168.6L82.9327 169H80.2527V167.72H83.9327V172.28H82.5527ZM88.1956 161.26H95.5956V162.52H88.1956V161.26ZM88.3556 167.72H96.7756V169H86.8756V155H96.4756V156.28H88.3556V167.72ZM100.059 169V155H111.839V169H110.379V155.88L110.759 156.28H101.139L101.519 155.88V169H100.059ZM126.803 155H128.263V169H126.803V155ZM118.043 169H116.563V155H118.043V169ZM126.943 162.54H117.883V161.24H126.943V162.54ZM138.849 160C140.502 160 141.762 160.373 142.629 161.12C143.509 161.853 143.949 162.947 143.949 164.4C143.949 165.907 143.482 167.053 142.549 167.84C141.616 168.613 140.282 169 138.549 169H132.989V155H134.449V160H138.849ZM138.509 167.82C139.802 167.82 140.782 167.533 141.449 166.96C142.129 166.387 142.469 165.547 142.469 164.44C142.469 163.333 142.136 162.52 141.469 162C140.802 161.467 139.816 161.2 138.509 161.2H134.449V167.82H138.509ZM146.369 169V155H147.829V169H146.369ZM153.86 161.26H161.26V162.52H153.86V161.26ZM154.02 167.72H162.44V169H152.54V155H162.14V156.28H154.02V167.72ZM170.958 169V155H176.198C177.384 155 178.404 155.193 179.258 155.58C180.111 155.953 180.764 156.5 181.218 157.22C181.684 157.927 181.918 158.787 181.918 159.8C181.918 160.787 181.684 161.64 181.218 162.36C180.764 163.067 180.111 163.613 179.258 164C178.404 164.387 177.384 164.58 176.198 164.58H171.778L172.438 163.88V169H170.958ZM172.438 164L171.778 163.28H176.158C177.558 163.28 178.618 162.98 179.338 162.38C180.071 161.767 180.438 160.907 180.438 159.8C180.438 158.68 180.071 157.813 179.338 157.2C178.618 156.587 177.558 156.28 176.158 156.28H171.778L172.438 155.58V164ZM186.262 161.26H193.662V162.52H186.262V161.26ZM186.422 167.72H194.842V169H184.942V155H194.542V156.28H186.422V167.72ZM206.346 167.72L205.986 168.12V155H207.446V168.12L207.046 167.72H214.226L213.826 168.12V155H215.286V169H198.126V155H199.586V168.12L199.206 167.72H206.346ZM221.321 161.26H228.721V162.52H221.321V161.26ZM221.481 167.72H229.901V169H220.001V155H229.601V156.28H221.481V167.72ZM243.424 155H244.884V169H243.424V155ZM234.664 169H233.184V155H234.664V169ZM243.564 162.54H234.504V161.24H243.564V162.54ZM249.61 169V155H251.07V166.6L260.03 155H261.37V169H259.91V157.42L250.95 169H249.61ZM274.554 169V164.36L274.954 164.76H270.374C269.254 164.76 268.294 164.567 267.494 164.18C266.708 163.793 266.101 163.247 265.674 162.54C265.261 161.82 265.054 160.96 265.054 159.96C265.054 158.893 265.281 157.993 265.734 157.26C266.188 156.513 266.828 155.953 267.654 155.58C268.494 155.193 269.468 155 270.574 155H276.014V169H274.554ZM265.054 169L268.494 164.08H270.014L266.634 169H265.054ZM274.554 163.94V155.86L274.954 156.28H270.634C269.328 156.28 268.314 156.593 267.594 157.22C266.888 157.833 266.534 158.733 266.534 159.92C266.534 161.067 266.868 161.953 267.534 162.58C268.201 163.193 269.188 163.5 270.494 163.5H274.954L274.554 163.94Z" fill="#222222"/>
<rect x="78" y="223" width="146" height="23" rx="9" fill="#BC3126"/>
<path d="M100.816 237.848V229.912H96.976L96.928 231.544C96.896 232.237 96.848 232.893 96.784 233.512C96.7307 234.131 96.6453 234.696 96.528 235.208C96.4107 235.709 96.256 236.136 96.064 236.488C95.8827 236.84 95.6533 237.091 95.376 237.24L92.608 236.888C92.992 236.899 93.3067 236.765 93.552 236.488C93.808 236.211 94.0107 235.821 94.16 235.32C94.3093 234.808 94.416 234.211 94.48 233.528C94.5547 232.845 94.608 232.104 94.64 231.304L94.768 227.8H103.376V237.848H100.816ZM92.24 241.32L92.256 236.888H104.944V241.32H102.544V239H94.64V241.32H92.24ZM110.611 239.128C109.63 239.128 108.766 238.936 108.019 238.552C107.283 238.168 106.712 237.645 106.307 236.984C105.902 236.312 105.699 235.549 105.699 234.696C105.699 233.832 105.896 233.069 106.291 232.408C106.696 231.736 107.246 231.213 107.939 230.84C108.632 230.456 109.416 230.264 110.291 230.264C111.134 230.264 111.891 230.445 112.563 230.808C113.246 231.16 113.784 231.672 114.179 232.344C114.574 233.005 114.771 233.8 114.771 234.728C114.771 234.824 114.766 234.936 114.755 235.064C114.744 235.181 114.734 235.293 114.723 235.4H107.731V233.944H113.411L112.451 234.376C112.451 233.928 112.36 233.539 112.179 233.208C111.998 232.877 111.747 232.621 111.427 232.44C111.107 232.248 110.734 232.152 110.307 232.152C109.88 232.152 109.502 232.248 109.171 232.44C108.851 232.621 108.6 232.883 108.419 233.224C108.238 233.555 108.147 233.949 108.147 234.408V234.792C108.147 235.261 108.248 235.677 108.451 236.04C108.664 236.392 108.958 236.664 109.331 236.856C109.715 237.037 110.163 237.128 110.675 237.128C111.134 237.128 111.534 237.059 111.875 236.92C112.227 236.781 112.547 236.573 112.835 236.296L114.163 237.736C113.768 238.184 113.272 238.531 112.675 238.776C112.078 239.011 111.39 239.128 110.611 239.128ZM115.518 238.984L115.646 236.936C115.71 236.947 115.774 236.957 115.838 236.968C115.902 236.968 115.961 236.968 116.014 236.968C116.313 236.968 116.548 236.883 116.718 236.712C116.889 236.541 117.017 236.312 117.102 236.024C117.188 235.725 117.246 235.389 117.278 235.016C117.321 234.643 117.353 234.253 117.374 233.848L117.502 230.392H124.862V239H122.366V231.832L122.926 232.44H119.15L119.678 231.8L119.566 233.96C119.534 234.728 119.47 235.432 119.374 236.072C119.289 236.712 119.145 237.267 118.942 237.736C118.74 238.195 118.468 238.552 118.126 238.808C117.785 239.053 117.348 239.176 116.814 239.176C116.622 239.176 116.42 239.16 116.206 239.128C115.993 239.096 115.764 239.048 115.518 238.984ZM131.295 239.128C130.377 239.128 129.561 238.936 128.847 238.552C128.143 238.168 127.583 237.645 127.167 236.984C126.761 236.312 126.559 235.549 126.559 234.696C126.559 233.832 126.761 233.069 127.167 232.408C127.583 231.736 128.143 231.213 128.847 230.84C129.561 230.456 130.377 230.264 131.295 230.264C132.201 230.264 133.012 230.456 133.727 230.84C134.441 231.213 135.001 231.731 135.407 232.392C135.812 233.053 136.015 233.821 136.015 234.696C136.015 235.549 135.812 236.312 135.407 236.984C135.001 237.645 134.441 238.168 133.727 238.552C133.012 238.936 132.201 239.128 131.295 239.128ZM131.295 237.08C131.711 237.08 132.084 236.984 132.415 236.792C132.745 236.6 133.007 236.328 133.199 235.976C133.391 235.613 133.487 235.187 133.487 234.696C133.487 234.195 133.391 233.768 133.199 233.416C133.007 233.064 132.745 232.792 132.415 232.6C132.084 232.408 131.711 232.312 131.295 232.312C130.879 232.312 130.505 232.408 130.174 232.6C129.844 232.792 129.577 233.064 129.375 233.416C129.183 233.768 129.087 234.195 129.087 234.696C129.087 235.187 129.183 235.613 129.375 235.976C129.577 236.328 129.844 236.6 130.174 236.792C130.505 236.984 130.879 237.08 131.295 237.08ZM144.871 239V229.32L145.463 229.912H141.303V227.8H151.015V229.912H146.855L147.431 229.32V239H144.871ZM155.783 239.128C154.802 239.128 153.938 238.936 153.191 238.552C152.455 238.168 151.884 237.645 151.479 236.984C151.074 236.312 150.871 235.549 150.871 234.696C150.871 233.832 151.068 233.069 151.463 232.408C151.868 231.736 152.418 231.213 153.111 230.84C153.804 230.456 154.588 230.264 155.463 230.264C156.306 230.264 157.063 230.445 157.735 230.808C158.418 231.16 158.956 231.672 159.351 232.344C159.746 233.005 159.943 233.8 159.943 234.728C159.943 234.824 159.938 234.936 159.927 235.064C159.916 235.181 159.906 235.293 159.895 235.4H152.903V233.944H158.583L157.623 234.376C157.623 233.928 157.532 233.539 157.351 233.208C157.17 232.877 156.919 232.621 156.599 232.44C156.279 232.248 155.906 232.152 155.479 232.152C155.052 232.152 154.674 232.248 154.343 232.44C154.023 232.621 153.772 232.883 153.591 233.224C153.41 233.555 153.319 233.949 153.319 234.408V234.792C153.319 235.261 153.42 235.677 153.623 236.04C153.836 236.392 154.13 236.664 154.503 236.856C154.887 237.037 155.335 237.128 155.847 237.128C156.306 237.128 156.706 237.059 157.047 236.92C157.399 236.781 157.719 236.573 158.007 236.296L159.335 237.736C158.94 238.184 158.444 238.531 157.847 238.776C157.25 239.011 156.562 239.128 155.783 239.128ZM160.47 239L164.326 233.944L164.278 235.32L160.582 230.392H163.382L165.718 233.608L164.662 233.64L167.078 230.392H169.734L166.022 235.272V233.928L169.862 239H167.03L164.582 235.576L165.622 235.72L163.19 239H160.47ZM171.091 239V230.392H173.571V233.752H177.315V230.392H179.811V239H177.315V235.784H173.571V239H171.091ZM182.2 239V230.392H184.68V235.512L188.872 230.392H191.16V239H188.68V233.88L184.504 239H182.2ZM199.655 239L196.775 234.92L198.807 233.72L202.599 239H199.655ZM193.559 239V230.392H196.055V239H193.559ZM195.319 235.736V233.736H198.327V235.736H195.319ZM199.047 234.984L196.711 234.728L199.735 230.392H202.391L199.047 234.984ZM203.825 239V230.392H206.305V235.512L210.497 230.392H212.785V239H210.305V233.88L206.129 239H203.825Z" fill="white"/>
</svg>
